<?xml version="1.0" encoding="UTF-8"?>
<svg width="27px" height="35px" viewBox="0 0 27 35" version="1.1" xmlns="http://www.w3.org/2000/svg" xmlns:xlink="http://www.w3.org/1999/xlink">
    <!-- Generator: sketchtool 49.3 (51167) - http://www.bohemiancoding.com/sketch -->
    <title>CA74542B-0238-4DAB-A323-EE11A2C3AFBE</title>
    <desc>Created with sketchtool.</desc>
    <defs>
        <rect id="path-1" x="18" y="17" width="442" height="493" rx="5"></rect>
        <filter x="-1.6%" y="-1.0%" width="103.2%" height="102.8%" filterUnits="objectBoundingBox" id="filter-2">
            <feOffset dx="0" dy="2" in="SourceAlpha" result="shadowOffsetOuter1"></feOffset>
            <feGaussianBlur stdDeviation="2" in="shadowOffsetOuter1" result="shadowBlurOuter1"></feGaussianBlur>
            <feComposite in="shadowBlurOuter1" in2="SourceAlpha" operator="out" result="shadowBlurOuter1"></feComposite>
            <feColorMatrix values="0 0 0 0 0   0 0 0 0 0   0 0 0 0 0  0 0 0 0.3 0" type="matrix" in="shadowBlurOuter1"></feColorMatrix>
        </filter>
        <polygon id="path-3" points="0.508456098 0.504726415 21.4867317 0.504726415 21.4867317 20.9605755 0.508456098 20.9605755"></polygon>
    </defs>
    <g id="tcaster-desktop" stroke="none" stroke-width="1" fill="none" fill-rule="evenodd">
        <g id="Artboard---1366x768-(W960px---12-Col.grid)-Copy-50" transform="translate(-68.000000, -271.000000)">
            <rect id="Rectangle-4" fill="#F3F3F3" opacity="0.2" x="-2" y="0" width="1368" height="775"></rect>
            <g id="Rectangle-Copy">
                <use fill="black" fill-opacity="1" filter="url(#filter-2)" xlink:href="#path-1"></use>
                <use fill-opacity="0" fill="#FFFFFF" fill-rule="evenodd" xlink:href="#path-1"></use>
            </g>
            <g id="Group-4" transform="translate(41.000000, 201.000000)">
                <g id="Page-1-Copy-2" transform="translate(27.000000, 70.000000)">
                    <path d="M20.9114341,19.6534245 L20.9114341,33.4361604 C20.9114341,34.5588019 19.7181659,35.2766321 18.730361,34.7489906 L13.3777756,31.8915377 L13.3777756,19.6534245 L20.9114341,19.6534245 Z" id="Fill-1" fill="#F7B4B9"></path>
                    <path d="M5.84418293,19.6534245 L5.84418293,33.4361604 C5.84418293,34.5588019 7.03679268,35.2766321 8.0252561,34.7489906 L13.3771829,31.8915377 L13.3771829,19.6534245 L5.84418293,19.6534245 Z" id="Fill-3" fill="#F05A58"></path>
                    <g id="Group-7" transform="translate(5.268293, 5.869434)">
                        <mask id="mask-4" fill="white">
                            <use xlink:href="#path-3"></use>
                        </mask>
                        <g id="Clip-6"></g>
                        <path d="M18.4509439,1.49991509 C19.4855049,3.27566981 20.0814805,5.34000943 20.0814805,7.54566981 C20.0814805,14.1758585 14.7216512,19.5513302 8.10928537,19.5513302 C5.68784634,19.5513302 3.43630976,18.8275566 1.55289512,17.5886887 L0.508456098,18.5825566 C2.66713902,20.0809528 5.28548049,20.9605755 8.10928537,20.9605755 C15.4980659,20.9605755 21.4867976,14.9544434 21.4867976,7.54566981 C21.4867976,4.96293396 20.7577976,2.55189623 19.4960415,0.504726415 L18.4509439,1.49991509 Z" id="Fill-5" fill="#5F5F5F" mask="url(#mask-4)"></path>
                    </g>
                    <path d="M23.7192366,7.36934906 L24.7643341,6.37416038 C23.7389927,4.71066981 22.3613341,3.28887736 20.7360659,2.21312264 L19.6863585,3.21227358 C21.3458707,4.24642453 22.7327488,5.67614151 23.7192366,7.36934906" id="Fill-8" fill="#7C7C7C"></path>
                    <path d="M2.88913171,19.204566 L1.84008293,20.2030566 C2.82986341,21.8903208 4.1759122,23.3418302 5.77681463,24.4519245 L6.82125366,23.4580566 C5.1894,22.3849434 3.83544878,20.9241887 2.88913171,19.204566" id="Fill-10" fill="#7C7C7C"></path>
                    <path d="M1.40551463,13.4153019 C1.40551463,6.78445283 6.76600244,1.40964151 13.3777098,1.40964151 C15.6931244,1.40964151 17.8544415,2.07067925 19.6864902,3.2124717 L20.7361976,2.21332075 C18.6242707,0.815962264 16.0968073,0.000396226415 13.3777098,0.000396226415 C5.9895878,0.000396226415 0.000197560976,6.00586792 0.000197560976,13.4153019 C0.000197560976,15.8923774 0.672563415,18.2116226 1.84014878,20.2026604 L2.88919756,19.2048302 C1.94419756,17.4878491 1.40551463,15.5146415 1.40551463,13.4153019" id="Fill-12" fill="#5F5F5F"></path>
                    <path d="M8.72146098,19.8416981 L9.30229024,14.7429245 L8.49821707,13.8639623 L2.88946098,19.204434 C3.83511951,20.924717 5.18972927,22.3854717 6.82092439,23.4585849 L12.3737049,18.1716038 L8.72146098,19.8416981 Z" id="Fill-14" fill="#F2F2F2"></path>
                    <path d="M5.84418293,10.9601509 L10.858939,9.93854717 L13.3771829,5.47109434 L14.7522073,7.90986792 L19.686622,3.21260377 C17.8539146,2.07081132 15.6932561,1.40977358 13.3771829,1.40977358 C6.76547561,1.40977358 1.40564634,6.78458491 1.40564634,13.415434 C1.40564634,15.5141132 1.94432927,17.4879811 2.88932927,19.2043019 L8.49808537,13.8638302 L5.84418293,10.9601509 Z" id="Fill-16" fill="#E4E4E4"></path>
                    <path d="M19.6862927,3.21233962 L14.7525366,7.90960377 L15.8964146,9.9389434 L20.1176341,10.7987547 L23.7191707,7.36941509 C22.7326829,5.67554717 21.3458049,4.24583019 19.6862927,3.21233962" id="Fill-18" fill="#F2F2F2"></path>
                    <path d="M20.9114341,10.9601509 L17.4534585,14.7434528 L18.0336293,19.841566 L13.3777756,17.7125094 L12.3735073,18.1714717 L6.82138537,23.4584528 C8.7048,24.6973208 10.9563366,25.420434 13.3777756,25.420434 C19.9901415,25.420434 25.3493122,20.0456226 25.3493122,13.415434 C25.3493122,11.2097736 24.7539951,9.14543396 23.7194341,7.36967925 L20.1178976,10.7990189 L20.9114341,10.9601509 Z" id="Fill-20" fill="#E4E4E4"></path>
                    <polygon id="Fill-22" fill="#F05A58" points="20.9114341 10.9601509 20.1178976 10.7990189 15.896678 9.93854717 14.7521415 7.90986792 13.3777756 5.47109434 10.8588732 9.93854717 5.84411707 10.9601509 8.49801951 13.8638302 9.30209268 14.7434528 8.72126341 19.841566 12.3735073 18.1714717 13.3777756 17.7125094 18.0336293 19.841566 17.4534585 14.7434528"></polygon>
                    <path d="M14.3080902,6.16145283 L15.9932854,9.14966038 C16.1454073,9.42041509 16.4075049,9.61126415 16.7104317,9.67201887 L20.0650171,10.3561698 C20.8796268,10.5225849 21.2023098,11.5164528 20.640578,12.1312642 L18.3277976,14.6611698 C18.1177244,14.8903208 18.0182854,15.1993774 18.0531878,15.5071132 L18.4410659,18.9179623 C18.5358951,19.7460755 17.6923098,20.3608868 16.9356512,20.0155094 L13.8214317,18.5904151 C13.539578,18.4616415 13.2162366,18.4616415 12.9343829,18.5904151 L9.82016341,20.0155094 C9.06284634,20.3608868 8.21991951,19.7460755 8.31343171,18.9179623 L8.70196829,15.5071132 C8.73752927,15.1993774 8.63743171,14.8903208 8.42801707,14.6611698 L6.11523659,12.1312642 C5.55284634,11.5164528 5.87487073,10.5225849 6.69013902,10.3561698 L10.0440659,9.67201887 C10.3476512,9.61126415 10.6097488,9.42041509 10.7618707,9.14966038 L12.4470659,6.16145283 C12.8566756,5.43569811 13.899139,5.43569811 14.3080902,6.16145283" id="Fill-24" fill="#F05A58"></path>
                    <path d="M2.25759512,13.1212358 C2.25759512,13.1212358 5.51537561,4.79123585 13.3776439,2.21312264 C13.3776439,2.21312264 3.62866829,2.57831132 2.25759512,13.1212358" id="Fill-26" fill="#F2F2F2"></path>
                </g>
            </g>
        </g>
    </g>
</svg>