<?xml version="1.0" encoding="UTF-8"?>
<svg width="80px" height="86px" viewBox="0 0 80 86" version="1.1" xmlns="http://www.w3.org/2000/svg" xmlns:xlink="http://www.w3.org/1999/xlink">
    <!-- Generator: sketchtool 49.3 (51167) - http://www.bohemiancoding.com/sketch -->
    <title>31DD9112-DA77-4BB3-984E-75B119058596</title>
    <desc>Created with sketchtool.</desc>
    <defs>
        <rect id="path-1" x="18" y="17" width="442" height="493" rx="5"></rect>
        <filter x="-1.6%" y="-1.0%" width="103.2%" height="102.8%" filterUnits="objectBoundingBox" id="filter-2">
            <feOffset dx="0" dy="2" in="SourceAlpha" result="shadowOffsetOuter1"></feOffset>
            <feGaussianBlur stdDeviation="2" in="shadowOffsetOuter1" result="shadowBlurOuter1"></feGaussianBlur>
            <feComposite in="shadowBlurOuter1" in2="SourceAlpha" operator="out" result="shadowBlurOuter1"></feComposite>
            <feColorMatrix values="0 0 0 0 0   0 0 0 0 0   0 0 0 0 0  0 0 0 0.3 0" type="matrix" in="shadowBlurOuter1"></feColorMatrix>
        </filter>
        <polygon id="path-3" points="9.52216239e-16 85.999834 9.52216239e-16 0.503333333 79.7633058 0.503333333 79.7633058 85.999834"></polygon>
    </defs>
    <g id="tcaster-desktop" stroke="none" stroke-width="1" fill="none" fill-rule="evenodd">
        <g id="Artboard---1366x768-(W960px---12-Col.grid)-Copy-50" transform="translate(-40.000000, -37.000000)">
            <rect id="Rectangle-4" fill="#F3F3F3" opacity="0.2" x="-2" y="0" width="1368" height="775"></rect>
            <g id="Rectangle-Copy">
                <use fill="black" fill-opacity="1" filter="url(#filter-2)" xlink:href="#path-1"></use>
                <use fill-opacity="0" fill="#FFFFFF" fill-rule="evenodd" xlink:href="#path-1"></use>
            </g>
            <g id="detail-copy" transform="translate(30.000000, 30.000000)">
                <g id="engi-copy-2">
                    <g id="Page-1" transform="translate(10.000000, 6.666667)">
                        <g id="Group-3" transform="translate(0.000000, 0.163333)">
                            <mask id="mask-4" fill="white">
                                <use xlink:href="#path-3"></use>
                            </mask>
                            <g id="Clip-2"></g>
                            <path d="M45.3486942,78.3548 C49.1562975,80.6548 53.6858843,81.8641333 58.5156364,81.5514667 C69.9430744,80.8128 79.1529917,71.3901333 79.7334876,59.8588 C80.3219174,48.1594667 72.210843,38.2621333 61.3493554,36.1494667 C59.9946446,35.8861333 59.065719,34.6334667 59.2402645,33.2534667 C59.3923306,32.0514667 59.4716694,30.8268 59.4716694,29.5834667 C59.4716694,13.1474667 45.949686,-0.103866667 29.5113388,0.5248 C15.5893554,1.0568 2.89778512,13.3708 1.87299174,27.3808 C1.31563636,35.0021333 3.67861157,42.0534667 7.94373554,47.5268 C9.2627438,49.2188 8.9473719,51.7168 7.24357025,53.0128 C2.51431405,56.6108 -0.417917355,62.4814667 0.0481983471,69.0161333 C0.690842975,78.0134667 7.93778512,85.3134667 16.8614215,85.9521333 C22.5275372,86.3581333 27.6898512,84.1441333 31.2792727,80.3901333 C34.9843967,76.5148 40.7695207,75.5881333 45.3486942,78.3548" id="Fill-1" fill="#F2F2F2" mask="url(#mask-4)"></path>
                        </g>
                        <path d="M25.1646942,14.7524667 L25.1646942,10.5998" id="Fill-4" fill="#AED038"></path>
                        <path d="M25.1646942,15.7212667 C24.6337851,15.7212667 24.2033719,15.2879333 24.2033719,14.7526 L24.2033719,10.5992667 C24.2033719,10.0646 24.6337851,9.6306 25.1646942,9.6306 C25.6949421,9.6306 26.1253554,10.0646 26.1253554,10.5992667 L26.1253554,14.7526 C26.1253554,15.2879333 25.6949421,15.7212667 25.1646942,15.7212667" id="Fill-6" fill="#FF5A5A"></path>
                        <path d="M25.1646942,5.83 L25.1646942,1.67733333" id="Fill-8" fill="#AED038"></path>
                        <path d="M25.1646942,6.79873333 C24.6337851,6.79873333 24.2033719,6.3654 24.2033719,5.83006667 L24.2033719,1.67673333 C24.2033719,1.14206667 24.6337851,0.708066667 25.1646942,0.708066667 C25.6949421,0.708066667 26.1253554,1.14206667 26.1253554,1.67673333 L26.1253554,5.83006667 C26.1253554,6.3654 25.6949421,6.79873333 25.1646942,6.79873333" id="Fill-10" fill="#FF5A5A"></path>
                        <path d="M18.6809256,8.21473333 L22.7992727,8.21473333" id="Fill-12" fill="#AED038"></path>
                        <path d="M22.7996033,9.18346667 L18.6812562,9.18346667 C18.1503471,9.18346667 17.7199339,8.75013333 17.7199339,8.2148 C17.7199339,7.67946667 18.1503471,7.24613333 18.6812562,7.24613333 L22.7996033,7.24613333 C23.3305124,7.24613333 23.7602645,7.67946667 23.7602645,8.2148 C23.7602645,8.75013333 23.3305124,9.18346667 22.7996033,9.18346667" id="Fill-14" fill="#FF5A5A"></path>
                        <path d="M27.5290579,8.21473333 L31.6480661,8.21473333" id="Fill-16" fill="#AED038"></path>
                        <path d="M31.6477355,9.18346667 L27.5293884,9.18346667 C26.9991405,9.18346667 26.5680661,8.75013333 26.5680661,8.2148 C26.5680661,7.67946667 26.9991405,7.24613333 27.5293884,7.24613333 L31.6477355,7.24613333 C32.1786446,7.24613333 32.6090579,7.67946667 32.6090579,8.2148 C32.6090579,8.75013333 32.1786446,9.18346667 31.6477355,9.18346667" id="Fill-18" fill="#FF5A5A"></path>
                        <path d="M71.6884628,51.9276 C71.6884628,53.3662667 70.5320992,54.5322667 69.1053223,54.5322667 C67.6785455,54.5322667 66.5221818,53.3662667 66.5221818,51.9276 C66.5221818,50.4889333 67.6785455,49.3229333 69.1053223,49.3229333 C70.5320992,49.3229333 71.6884628,50.4889333 71.6884628,51.9276" id="Fill-20" fill="#F7B4B9"></path>
                        <path d="M8.32773554,79.9628 C8.32773554,81.4008 7.1713719,82.5674667 5.74459504,82.5674667 C4.31781818,82.5674667 3.16145455,81.4008 3.16145455,79.9628 C3.16145455,78.5241333 4.31781818,77.3574667 5.74459504,77.3574667 C7.1713719,77.3574667 8.32773554,78.5241333 8.32773554,79.9628" id="Fill-22" fill="#9A9A9A"></path>
                        <path d="M60.4881322,83.7531333 L60.4881322,79.6004667" id="Fill-24" fill="#ADD038"></path>
                        <path d="M60.4881322,84.7218667 C59.9572231,84.7218667 59.5274711,84.2885333 59.5274711,83.7532 L59.5274711,79.5998667 C59.5274711,79.0652 59.9572231,78.6312 60.4881322,78.6312 C61.0190413,78.6312 61.4487934,79.0652 61.4487934,79.5998667 L61.4487934,83.7532 C61.4487934,84.2885333 61.0190413,84.7218667 60.4881322,84.7218667" id="Fill-26" fill="#F7B4B9"></path>
                        <path d="M60.4881322,74.8306 L60.4881322,70.6779333" id="Fill-28" fill="#ADD038"></path>
                        <path d="M60.4881322,75.7994 C59.9572231,75.7994 59.5274711,75.3660667 59.5274711,74.8307333 L59.5274711,70.6774 C59.5274711,70.1427333 59.9572231,69.7087333 60.4881322,69.7087333 C61.0190413,69.7087333 61.4487934,70.1427333 61.4487934,70.6774 L61.4487934,74.8307333 C61.4487934,75.3660667 61.0190413,75.7994 60.4881322,75.7994" id="Fill-30" fill="#F7B4B9"></path>
                        <path d="M54.0044298,77.2154 L58.1227769,77.2154" id="Fill-32" fill="#ADD038"></path>
                        <path d="M58.1231074,78.1841333 L54.0047603,78.1841333 C53.4745124,78.1841333 53.043438,77.7508 53.043438,77.2154667 C53.043438,76.6801333 53.4745124,76.2468 54.0047603,76.2468 L58.1231074,76.2468 C58.6540165,76.2468 59.0837686,76.6801333 59.0837686,77.2154667 C59.0837686,77.7508 58.6540165,78.1841333 58.1231074,78.1841333" id="Fill-34" fill="#F7B4B9"></path>
                        <path d="M62.8532231,77.2154 L66.9715702,77.2154" id="Fill-36" fill="#ADD038"></path>
                        <path d="M66.9719008,78.1841333 L62.8535537,78.1841333 C62.3226446,78.1841333 61.8922314,77.7508 61.8922314,77.2154667 C61.8922314,76.6801333 62.3226446,76.2468 62.8535537,76.2468 L66.9719008,76.2468 C67.5028099,76.2468 67.932562,76.6801333 67.932562,77.2154667 C67.932562,77.7508 67.5028099,78.1841333 66.9719008,78.1841333" id="Fill-38" fill="#F7B4B9"></path>
                        <path d="M23.980562,65.2251333 C18.3799008,65.2251333 13.7551074,60.9391333 13.159405,55.4498 C13.1157686,55.0538 13.0919669,54.6531333 13.0919669,54.2458 C13.0919669,53.8391333 13.1157686,53.4378 13.159405,53.0431333 C13.7551074,47.5531333 18.3799008,43.2671333 23.980562,43.2671333 C29.5812231,43.2671333 34.2060165,47.5531333 34.8023802,53.0431333 C34.8453554,53.4378 34.869157,53.8391333 34.869157,54.2458 C34.869157,54.6531333 34.8453554,55.0538 34.8023802,55.4498 C34.2060165,60.9391333 29.5812231,65.2251333 23.980562,65.2251333 Z M42.090314,52.1091333 C41.8813884,50.3024667 41.4146116,48.5751333 40.7243636,46.9658 L43.3716364,44.8411333 L42.5623802,43.4284667 L41.7537851,42.0158 L38.6007273,43.2664667 C37.5441983,41.8384667 36.2853554,40.5711333 34.869157,39.5044667 L36.1108099,36.3244667 L34.709157,35.5091333 L33.3075041,34.6931333 L31.2023802,37.3611333 C29.605686,36.6638 27.8919669,36.1918 26.0989091,35.9818 L25.5984132,32.6104667 L23.980562,32.6104667 L22.3627107,32.6104667 L21.8622149,35.9818 C20.069157,36.1918 18.355438,36.6638 16.759405,37.3611333 L14.6536198,34.6931333 L13.2519669,35.5091333 L11.8509752,36.3244667 L13.0919669,39.5044667 C11.6764298,40.5711333 10.4169256,41.8384667 9.36039669,43.2664667 L6.20733884,42.0158 L5.3987438,43.4284667 L4.5894876,44.8411333 L7.23742149,46.9658 C6.5465124,48.5751333 6.07973554,50.3024667 5.87080992,52.1091333 L2.52403306,52.6151333 L2.52403306,54.2458 L2.52403306,55.8778 L5.87080992,56.3824667 C6.07973554,58.1891333 6.5465124,59.9171333 7.23742149,61.5264667 L4.5894876,63.6518 L5.3987438,65.0644667 L6.20733884,66.4771333 L9.36039669,65.2258 C10.4175868,66.6544667 11.6764298,67.9218 13.0919669,68.9884667 L11.8509752,72.1678 L13.2519669,72.9838 L14.6536198,73.7991333 L16.759405,71.1304667 C18.355438,71.8278 20.069157,72.3004667 21.8622149,72.5111333 L22.3627107,75.8818 L23.980562,75.8818 L25.5984132,75.8818 L26.0989091,72.5111333 C27.8919669,72.3004667 29.605686,71.8278 31.2023802,71.1304667 L33.3075041,73.7991333 L34.709157,72.9838 L36.1108099,72.1678 L34.869157,68.9884667 C36.2846942,67.9218 37.5441983,66.6544667 38.6007273,65.2258 L41.7537851,66.4771333 L42.5623802,65.0644667 L43.3716364,63.6518 L40.7243636,61.5264667 C41.4146116,59.9171333 41.8813884,58.1891333 42.090314,56.3824667 L45.4377521,55.8778 L45.4377521,54.2458 L45.4377521,52.6151333 L42.090314,52.1091333 Z" id="Fill-40" fill="#FEFEFE"></path>
                        <path d="M23.980562,44.4302 C19.0060165,44.4302 14.8466777,48.1875333 14.3051901,53.1688667 C14.2655207,53.5348667 14.2450248,53.8968667 14.2450248,54.2462 C14.2450248,54.5948667 14.2655207,54.9568667 14.3051901,55.3222 C14.8466777,60.3048667 19.0060165,64.0622 23.980562,64.0622 C28.9551074,64.0622 33.1144463,60.3048667 33.656595,55.3228667 C33.6956033,54.9555333 33.7160992,54.5928667 33.7160992,54.2462 C33.7160992,53.8988667 33.6956033,53.5362 33.6559339,53.1682 C33.1144463,48.1875333 28.9551074,44.4302 23.980562,44.4302 Z M23.980562,66.3882 C17.8265124,66.3882 12.6820496,61.7402 12.0129587,55.5762 C11.9640331,55.1275333 11.9389091,54.6795333 11.9389091,54.2462 C11.9389091,53.8122 11.9640331,53.3642 12.0129587,52.9155333 C12.6820496,46.7522 17.8265124,42.1048667 23.980562,42.1048667 C30.1339504,42.1048667 35.2790744,46.7522 35.9488264,52.9162 C35.9977521,53.3675333 36.0222149,53.8148667 36.0222149,54.2462 C36.0222149,54.6762 35.9977521,55.1235333 35.9494876,55.5755333 C35.2790744,61.7402 30.1339504,66.3882 23.980562,66.3882 Z M23.3564298,74.7195333 L24.6046942,74.7195333 L25.0893223,71.4588667 L25.9660165,71.3562 C27.6162645,71.1628667 29.2235372,70.7275333 30.7435372,70.0635333 L31.5547769,69.7095333 L33.5918017,72.2915333 L34.6734545,71.6615333 L33.4727934,68.5875333 L34.1789091,68.0562 C35.5104793,67.0535333 36.688,65.8668667 37.6764298,64.5302 L38.2033719,63.8182 L41.2519669,65.0282 L41.8760992,63.9375333 L39.315438,61.8822 L39.6665124,61.0648667 C40.3223802,59.5355333 40.7521322,57.9148667 40.9445289,56.2482 L41.0463471,55.3642 L44.2846942,54.8755333 L44.2846942,53.6162 L41.0463471,53.1275333 L40.9445289,52.2435333 C40.7521322,50.5782 40.3223802,48.9575333 39.6665124,47.4275333 L39.315438,46.6108667 L41.8760992,44.5548667 L41.2519669,43.4642 L38.2033719,44.6742 L37.6764298,43.9622 C36.6866777,42.6242 35.5098182,41.4382 34.1789091,40.4362 L33.4727934,39.9048667 L34.6734545,36.8315333 L33.5911405,36.2008667 L31.5547769,38.7822 L30.7435372,38.4282 C29.2255207,37.7648667 27.6175868,37.3308667 25.9660165,37.1368667 L25.0893223,37.0335333 L24.6046942,33.7735333 L23.3564298,33.7735333 L22.8718017,37.0335333 L21.9951074,37.1368667 C20.3435372,37.3308667 18.7356033,37.7648667 17.2175868,38.4282 L16.4076694,38.7822 L14.3699835,36.2008667 L13.2876694,36.8308667 L14.4876694,39.9048667 L13.7822149,40.4362 C12.4506446,41.4395333 11.273124,42.6255333 10.2846942,43.9622 L9.75775207,44.6742 L6.70915702,43.4642 L6.08502479,44.5548667 L8.64634711,46.6108667 L8.29527273,47.4275333 C7.63940496,48.9568667 7.20899174,50.5775333 7.01659504,52.2435333 L6.91477686,53.1275333 L3.67709091,53.6162 L3.67709091,54.8755333 L6.91477686,55.3642 L7.01659504,56.2482 C7.20899174,57.9155333 7.63940496,59.5355333 8.29527273,61.0648667 L8.64634711,61.8822 L6.08502479,63.9375333 L6.70915702,65.0282 L9.75709091,63.8182 L10.2840331,64.5295333 C11.2744463,65.8682 12.4519669,67.0548667 13.7822149,68.0562 L14.4876694,68.5875333 L13.2876694,71.6622 L14.3699835,72.2915333 L16.4076694,69.7095333 L17.2175868,70.0635333 C18.7375868,70.7275333 20.3448595,71.1628667 21.9951074,71.3562 L22.8718017,71.4588667 L23.3564298,74.7195333 Z M26.5921322,77.0448667 L21.3689917,77.0448667 L20.8493223,73.5422 C19.5759339,73.3328667 18.3289917,72.9955333 17.1250248,72.5348667 L14.936595,75.3068667 L10.414281,72.6735333 L11.7041983,69.3688667 C10.7084959,68.5462 9.79742149,67.6275333 8.98221488,66.6255333 L5.70552066,67.9255333 L3.09395041,63.3655333 L5.84436364,61.1582 C5.3894876,59.9455333 5.05626446,58.6895333 4.84866116,57.4042 L1.37097521,56.8795333 L1.37097521,51.6135333 L4.84866116,51.0875333 C5.05626446,49.8035333 5.3894876,48.5468667 5.84436364,47.3342 L3.09395041,45.1268667 L5.70552066,40.5668667 L8.98221488,41.8668667 C9.79676033,40.8655333 10.7078347,39.9468667 11.7041983,39.1235333 L10.414281,35.8188667 L14.936595,33.1855333 L17.1250248,35.9568667 C18.3283306,35.4968667 19.5752727,35.1602 20.8493223,34.9502 L21.3689917,31.4475333 L26.5921322,31.4475333 L27.1118017,34.9502 C28.3858512,35.1602 29.6334545,35.4968667 30.8367603,35.9568667 L33.0245289,33.1855333 L37.5481653,35.8182 L36.2569256,39.1235333 C37.2532893,39.9462 38.1643636,40.8648667 38.9789091,41.8668667 L42.2556033,40.5668667 L44.8671736,45.1268667 L42.1167603,47.3342 C42.5716364,48.5475333 42.9048595,49.8042 43.1124628,51.0875333 L46.5908099,51.6135333 L46.5908099,56.8795333 L43.1124628,57.4042 C42.9048595,58.6888667 42.5716364,59.9448667 42.1167603,61.1582 L44.8671736,63.3655333 L42.2556033,67.9255333 L38.9789091,66.6255333 C38.1643636,67.6268667 37.2532893,68.5455333 36.2569256,69.3688667 L37.5481653,72.6742 L33.0238678,75.3068667 L30.8367603,72.5348667 C29.6321322,72.9955333 28.3851901,73.3328667 27.1118017,73.5422 L26.5921322,77.0448667 Z" id="Fill-42" fill="#5F5F5F"></path>
                        <path d="M23.980562,44.8442667 C19.2156033,44.8442667 15.2321322,48.4422667 14.713124,53.2142667 C14.675438,53.5656 14.6556033,53.9122667 14.6556033,54.2462667 C14.6556033,54.5796 14.675438,54.9262667 14.713124,55.2769333 C15.2321322,60.0502667 19.2156033,63.6482667 23.980562,63.6482667 C28.7455207,63.6482667 32.7296529,60.0502667 33.2486612,55.2776 C33.2863471,54.9262667 33.3055207,54.5782667 33.3055207,54.2462667 C33.3055207,53.9136 33.2863471,53.5662667 33.2486612,53.2136 C32.7296529,48.4422667 28.7455207,44.8442667 23.980562,44.8442667 M23.980562,66.8022667 C17.6175868,66.8022667 12.296595,61.9956 11.6050248,55.6216 C11.5541157,55.1576 11.5283306,54.6942667 11.5283306,54.2462667 C11.5283306,53.7976 11.5541157,53.3336 11.6050248,52.8696 C12.296595,46.4969333 17.6175868,41.6909333 23.980562,41.6909333 C30.3435372,41.6909333 35.6638678,46.4969333 36.3567603,52.8709333 C36.4070083,53.3376 36.4327934,53.8002667 36.4327934,54.2462667 C36.4327934,54.6916 36.4070083,55.1536 36.3567603,55.6196 C35.6638678,61.9956 30.3435372,66.8022667 23.980562,66.8022667" id="Fill-44" fill="#F05A58"></path>
                        <path d="M56.113124,21.9927333 C51.9802314,21.9927333 48.5243636,25.1147333 48.0747769,29.2540667 C48.041719,29.5554 48.0251901,29.8567333 48.0251901,30.1480667 C48.0251901,30.4394 48.041719,30.7407333 48.0747769,31.0434 C48.5243636,35.1820667 51.9802314,38.3040667 56.113124,38.3040667 C60.2460165,38.3040667 63.7018843,35.1820667 64.1514711,31.0427333 C64.1845289,30.7407333 64.2010579,30.4394 64.2010579,30.1480667 C64.2010579,29.8567333 64.1845289,29.5554 64.1514711,29.2540667 C63.7018843,25.1147333 60.2460165,21.9927333 56.113124,21.9927333 Z M56.113124,40.1934 C51.022876,40.1934 46.765686,36.3480667 46.2109752,31.2487333 C46.1713058,30.8780667 46.1514711,30.5074 46.1514711,30.1480667 C46.1514711,29.7880667 46.1713058,29.4180667 46.2109752,29.0480667 C46.765686,23.9487333 51.022876,20.1034 56.113124,20.1034 C61.2033719,20.1034 65.460562,23.9487333 66.0152727,29.0480667 C66.0549421,29.4180667 66.0747769,29.7880667 66.0747769,30.1480667 C66.0747769,30.5074 66.0549421,30.8780667 66.0152727,31.2480667 C65.460562,36.3480667 61.2033719,40.1934 56.113124,40.1934 Z M55.5789091,47.1374 L56.6473388,47.1374 L57.0486612,44.4327333 L57.7607273,44.3487333 C59.1293223,44.1880667 60.4641983,43.8274 61.7270083,43.2767333 L62.3855207,42.9894 L64.0747769,45.1300667 L64.9990744,44.5914 L64.0046942,42.0427333 L64.5772562,41.6107333 C65.6827107,40.7787333 66.6592397,39.7934 67.4803967,38.6834 L67.9088264,38.1047333 L70.4370909,39.1087333 L70.9713058,38.1760667 L68.8470083,36.4720667 L69.1313058,35.8080667 C69.6767603,34.5367333 70.0337851,33.1920667 70.1924628,31.8107333 L70.2751074,31.0914 L72.9613884,30.6867333 L72.9613884,29.6100667 L70.2751074,29.2040667 L70.1924628,28.4854 C70.0337851,27.1047333 69.6767603,25.7600667 69.1313058,24.4887333 L68.8470083,23.8247333 L70.9713058,22.1200667 L70.4370909,21.1874 L67.9088264,22.1907333 L67.4803967,21.6127333 C66.6592397,20.5027333 65.6827107,19.5180667 64.5772562,18.6860667 L64.0046942,18.2540667 L64.9997355,15.7047333 L64.0747769,15.1667333 L62.3848595,17.3080667 L61.7263471,17.0200667 C60.4641983,16.4687333 59.1299835,16.1080667 57.7613884,15.9480667 L57.0486612,15.8647333 L56.6473388,13.1594 L55.5789091,13.1594 L55.1775868,15.8647333 L54.4648595,15.9480667 C53.0962645,16.1080667 51.7620496,16.4687333 50.4999008,17.0200667 L49.8413884,17.3080667 L48.1514711,15.1667333 L47.2265124,15.7047333 L48.2215537,18.2540667 L47.6489917,18.6860667 C46.5435372,19.5180667 45.5670083,20.5027333 44.7458512,21.6127333 L44.3174215,22.1907333 L41.789157,21.1874 L41.2549421,22.1200667 L43.3792397,23.8247333 L43.0949421,24.4887333 C42.5494876,25.7600667 42.1924628,27.1047333 42.0337851,28.4854 L41.9511405,29.2040667 L39.2648595,29.6100667 L39.2648595,30.6867333 L41.9511405,31.0914 L42.0337851,31.8107333 C42.1924628,33.1920667 42.5494876,34.5367333 43.0949421,35.8080667 L43.3792397,36.4720667 L41.2549421,38.1760667 L41.789157,39.1087333 L44.3174215,38.1047333 L44.7458512,38.6834 C45.5670083,39.7934 46.5435372,40.7787333 47.6489917,41.6107333 L48.2215537,42.0427333 L47.2271736,44.5914 L48.1514711,45.1300667 L49.8407273,42.9894 L50.4992397,43.2767333 C51.7620496,43.8274 53.0969256,44.1880667 54.4655207,44.3487333 L55.1775868,44.4327333 L55.5789091,47.1374 Z M58.2612231,49.0267333 L53.9650248,49.0267333 L53.5339504,46.1254 C52.4708099,45.9514 51.4294876,45.6707333 50.4245289,45.2847333 L48.6122975,47.5807333 L44.8906446,45.4147333 L45.9603967,42.6774 C45.1273388,41.9900667 44.3663471,41.2234 43.6873388,40.3860667 L40.9732893,41.4627333 L38.8251901,37.7114 L41.102876,35.8834 C40.7220496,34.8700667 40.4437025,33.8214 40.2711405,32.7494 L37.3911405,32.3140667 L37.3911405,27.9820667 L40.2711405,27.5467333 C40.4437025,26.4754 40.7220496,25.4260667 41.102876,24.4134 L38.8251901,22.5854 L40.9732893,18.8334 L43.6873388,19.9100667 C44.3663471,19.0727333 45.128,18.3060667 45.9603967,17.6187333 L44.8913058,14.8820667 L48.6122975,12.7160667 L50.4245289,15.0114 C51.4294876,14.6260667 52.4708099,14.3440667 53.5339504,14.1707333 L53.9650248,11.2700667 L58.2612231,11.2700667 L58.6922975,14.1707333 C59.755438,14.3440667 60.7967603,14.6260667 61.801719,15.0114 L63.6139504,12.7160667 L67.3349421,14.8820667 L66.2658512,17.6187333 C67.0982479,18.3060667 67.8599008,19.0727333 68.5389091,19.9100667 L71.2529587,18.8334 L73.4010579,22.5854 L71.1233719,24.4134 C71.5041983,25.4260667 71.7825455,26.4754 71.9551074,27.5467333 L74.8351074,27.9820667 L74.8351074,32.3140667 L71.9551074,32.7494 C71.7825455,33.8214 71.5041983,34.8700667 71.1233719,35.8834 L73.4010579,37.7114 L71.2529587,41.4627333 L68.5389091,40.3860667 C67.8599008,41.2234 67.0989091,41.9900667 66.2658512,42.6774 L67.3356033,45.4147333 L63.6139504,47.5807333 L61.801719,45.2847333 C60.7967603,45.6707333 59.755438,45.9514 58.6922975,46.1254 L58.2612231,49.0267333 Z" id="Fill-46" fill="#9A9A9A"></path>
                        <path d="M56.113124,22.9380667 C52.4595702,22.9380667 49.4037025,25.6974 49.005686,29.3567333 C48.976595,29.6240667 48.9627107,29.8907333 48.9627107,30.1480667 C48.9627107,30.4054 48.9772562,30.6720667 49.0063471,30.9407333 C49.4037025,34.5994 52.4595702,37.3587333 56.113124,37.3587333 C59.7666777,37.3587333 62.8225455,34.5994 63.220562,30.9400667 C63.2489917,30.6720667 63.2635372,30.4054 63.2635372,30.1480667 C63.2635372,29.8907333 63.2496529,29.6240667 63.220562,29.3567333 C62.8225455,25.6974 59.7666777,22.9380667 56.113124,22.9380667 M56.113124,41.1387333 C50.5435372,41.1387333 45.8863471,36.9307333 45.2800661,31.3514 C45.2364298,30.9467333 45.2139504,30.5420667 45.2139504,30.1480667 C45.2139504,29.7540667 45.2364298,29.3494 45.2800661,28.9454 C45.8863471,23.3660667 50.5435372,19.1580667 56.113124,19.1580667 C61.6827107,19.1580667 66.3399008,23.3660667 66.9461818,28.9454 C66.9898182,29.3494 67.0122975,29.7540667 67.0122975,30.1480667 C67.0122975,30.5420667 66.9898182,30.9467333 66.946843,31.3507333 C66.3399008,36.9307333 61.6827107,41.1387333 56.113124,41.1387333" id="Fill-48" fill="#F7B4B9"></path>
                    </g>
                </g>
            </g>
        </g>
    </g>
</svg>